<svg class="vjs-pbs-back-10"  xmlns="http://www.w3.org/2000/svg">
	<g clip-path="url(#clip0)">
		<path d="M50.69 122.8H60.29V79.08H54.14L41.47 86.76V95.85L50.69 90.22V122.8Z"  />
		<path d="M85.5701 123.43C90.9034 123.43 94.9668 121.5 97.7601 117.64C100.553 113.78 101.967 108.137 102 100.71C102 93.25 100.63 87.68 97.8901 84C95.1501 80.32 91.0834 78.4967 85.6901 78.53C80.2834 78.53 76.2001 80.4067 73.4401 84.16C70.6801 87.9133 69.3034 93.5467 69.3101 101.06C69.3101 115.98 74.7301 123.437 85.5701 123.43ZM81.2801 90.16C82.2201 87.98 83.7134 86.89 85.7601 86.89C87.6801 86.89 89.0868 87.9567 89.9801 90.09C90.8734 92.2233 91.3234 95.8067 91.3301 100.84C91.3301 110.4 89.4501 115.18 85.6901 115.18C83.7301 115.18 82.2701 114.037 81.3101 111.75C80.3501 109.463 79.8701 105.88 79.8701 101C79.8701 95.9533 80.3401 92.34 81.2801 90.16Z"  />
		<path d="M71.6527 23.8503C69.5027 23.8503 67.3427 23.9703 65.2027 24.1603L79.2727 10.0903C80.3326 8.95294 80.9096 7.44856 80.8821 5.89415C80.8547 4.33975 80.225 2.85666 79.1257 1.75736C78.0264 0.658056 76.5433 0.0283605 74.9889 0.000934776C73.4345 -0.026491 71.9301 0.550495 70.7927 1.61033L46.3727 26.0303C45.2491 27.1553 44.618 28.6803 44.618 30.2703C44.618 31.8603 45.2491 33.3853 46.3727 34.5103L70.7927 58.9303C71.342 59.5198 72.0044 59.9926 72.7404 60.3206C73.4764 60.6485 74.2709 60.8249 75.0765 60.8391C75.8822 60.8533 76.6824 60.7051 77.4295 60.4033C78.1766 60.1015 78.8553 59.6524 79.425 59.0826C79.9948 58.5129 80.4439 57.8342 80.7457 57.0871C81.0475 56.34 81.1957 55.5398 81.1815 54.7342C81.1672 53.9285 80.9909 53.134 80.663 52.398C80.335 51.662 79.8622 50.9996 79.2727 50.4503L65.0027 36.2103H65.1727C78.9704 34.7019 92.8622 38.0514 104.456 45.6822C116.05 53.313 124.621 64.7476 128.692 78.0169C132.764 91.2862 132.081 105.56 126.762 118.38C121.443 131.2 111.82 141.765 99.5509 148.254C87.2815 154.744 73.1334 156.752 59.5427 153.934C45.952 151.116 33.7692 143.647 25.0921 132.814C16.415 121.981 11.7866 108.461 12.0039 94.5828C12.2213 80.7047 17.2707 67.3365 26.2827 56.7803C26.7942 56.1809 27.1826 55.4865 27.4258 54.7369C27.6689 53.9873 27.7621 53.1972 27.6998 52.4116C27.6376 51.626 27.4213 50.8604 27.0632 50.1584C26.7051 49.4564 26.2122 48.8318 25.6127 48.3203C25.0132 47.8088 24.3189 47.4204 23.5693 47.1773C22.8197 46.9341 22.0295 46.841 21.244 46.9032C20.4584 46.9654 19.6927 47.1818 18.9908 47.5399C18.2888 47.898 17.6642 48.3909 17.1527 48.9903C6.54734 61.4166 0.506194 77.0936 0.0304152 93.4234C-0.445363 109.753 4.67279 125.755 14.5367 138.778C24.4006 151.801 38.4181 161.062 54.2662 165.027C70.1143 168.993 86.8416 167.424 101.676 160.581C116.511 153.738 128.562 142.032 135.832 127.402C143.103 112.773 145.156 96.0979 141.653 80.1413C138.149 64.1848 129.298 49.9045 116.567 39.6668C103.836 29.4291 87.9894 23.8487 71.6527 23.8503Z"  />
	</g>
	<defs>
		<clipPath id="clip0">
			<rect    />
		</clipPath>
	</defs>
</svg>
