<svg  xmlns="http://www.w3.org/2000/svg">
<path d="M153.92 0H6.08C4.46748 0 2.92101 0.64057 1.78079 1.78079C0.64057 2.92101 0 4.46748 0 6.08L0 106.92C0 108.533 0.64057 110.079 1.78079 111.219C2.92101 112.359 4.46748 113 6.08 113H153.92C154.718 113 155.509 112.843 156.247 112.537C156.984 112.232 157.655 111.784 158.219 111.219C158.784 110.655 159.232 109.984 159.537 109.247C159.843 108.509 160 107.718 160 106.92V6.08C160 5.28156 159.843 4.49094 159.537 3.75328C159.232 3.01562 158.784 2.34537 158.219 1.78079C157.655 1.21621 156.984 0.768361 156.247 0.462812C155.509 0.157264 154.718 0 153.92 0V0ZM73.56 41.62C69.8732 40.192 65.9537 39.4597 62 39.46C56.5067 39.46 52.2267 41.02 49.16 44.14C46.0933 47.26 44.56 51.4867 44.56 56.82C44.56 61.8867 46.0533 65.94 49.04 68.98C52.0267 72.02 56 73.54 60.96 73.54C65.3151 73.5082 69.6173 72.5824 73.6 70.82V81.82C69.0374 83.6972 64.1318 84.5965 59.2 84.46C54.1478 84.5515 49.1541 83.3684 44.68 81.02C40.5176 78.8058 37.0755 75.447 34.76 71.34C32.3134 66.9261 31.0718 61.9459 31.16 56.9C31.034 51.6767 32.2603 46.5096 34.72 41.9C37.0611 37.6739 40.5947 34.2308 44.88 32C49.7229 29.5556 55.0972 28.3529 60.52 28.5C64.9392 28.461 69.3336 29.1641 73.52 30.58L73.56 41.62ZM128.84 41.62C125.141 40.1872 121.207 39.4547 117.24 39.46C111.753 39.46 107.473 41.02 104.4 44.14C101.327 47.26 99.7933 51.4867 99.8 56.82C99.8 61.8867 101.293 65.94 104.28 68.98C107.267 72.02 111.24 73.54 116.2 73.54C120.555 73.5082 124.857 72.5824 128.84 70.82V81.82C124.277 83.6972 119.372 84.5965 114.44 84.46C109.388 84.5515 104.394 83.3684 99.92 81.02C95.763 78.8166 92.3215 75.4722 90 71.38C87.5605 66.9504 86.3326 61.9558 86.44 56.9C86.314 51.6767 87.5403 46.5096 90 41.9C92.3411 37.6739 95.8747 34.2308 100.16 32C105.003 29.5556 110.377 28.3529 115.8 28.5C120.219 28.461 124.614 29.1641 128.8 30.58L128.84 41.62Z" />
</svg>
