<svg  xmlns="http://www.w3.org/2000/svg">
<path fill-rule="evenodd" clip-rule="evenodd" d="M14 14V113H160V14H14ZM0 13.08C0 5.85612 5.85612 0 13.08 0H160.92C168.144 0 174 5.85611 174 13.08V113.92C174 121.144 168.144 127 160.92 127H13.08C5.85611 127 0 121.144 0 113.92V13.08ZM51.4889 88.7C47.3268 86.4763 43.8854 83.1113 41.5689 79C39.1298 74.5739 37.9018 69.5826 38.0089 64.53C37.882 59.3067 39.1084 54.1393 41.5689 49.53C43.904 45.2944 47.4387 41.8432 51.7289 39.61C56.5691 37.1553 61.9436 35.9422 67.3689 36.08C71.7878 36.0459 76.1813 36.7489 80.3689 38.16V49.16C76.6879 47.7712 72.7832 47.0695 68.8489 47.09C63.3623 47.09 59.0823 48.6533 56.0089 51.78C52.9356 54.9067 51.4023 59.1333 51.4089 64.46C51.4089 69.52 52.9023 73.5733 55.8889 76.62C58.8756 79.6667 62.8489 81.1833 67.8089 81.17C72.1634 81.1419 76.4657 80.2195 80.4489 78.46V89.46C75.8842 91.3289 70.9796 92.2247 66.0489 92.09C60.9876 92.2037 55.9795 91.0377 51.4889 88.7ZM96.849 79C99.1654 83.1113 102.607 86.4763 106.769 88.7C111.244 90.9934 116.222 92.128 121.249 92C126.18 92.1347 131.084 91.2389 135.649 89.37V78.37C131.666 80.1295 127.363 81.0519 123.009 81.08C118.049 81.0933 114.076 79.5767 111.089 76.53C108.102 73.4833 106.609 69.43 106.609 64.37C106.602 59.0433 108.136 54.8167 111.209 51.69C114.282 48.5633 118.562 47 124.049 47C128.016 46.9984 131.949 47.7308 135.649 49.16V38.16C131.461 36.7489 127.068 36.0459 122.649 36.08C117.224 35.9422 111.849 37.1553 107.009 39.61C102.719 41.8432 99.1841 45.2944 96.849 49.53C94.3884 54.1393 93.1621 59.3067 93.289 64.53C93.1819 69.5826 94.4099 74.5739 96.849 79Z" />
</svg>
