<svg  xmlns="http://www.w3.org/2000/svg">
<path fill-rule="evenodd" clip-rule="evenodd" d="M82.3416 59.9273C79.7257 58.8439 78.0201 56.2914 78.0201 53.46L78.0201 25.95C78.0201 22.084 81.1541 18.95 85.0201 18.95C88.8861 18.95 92.0201 22.084 92.0201 25.95L92.0201 36.5579L125.87 2.70079C128.603 -0.033181 133.035 -0.0336651 135.769 2.69971C138.503 5.43308 138.504 9.86523 135.77 12.5992L89.9704 58.4092C87.9685 60.4115 84.9576 61.0107 82.3416 59.9273Z" />
<path fill-rule="evenodd" clip-rule="evenodd" d="M119.72 53.66C119.72 57.526 116.586 60.66 112.72 60.66L85.22 60.66C82.3886 60.66 79.8361 58.9543 78.7527 56.3384C77.6693 53.7225 78.2685 50.7116 80.2708 48.7097L126.081 2.90972C128.815 0.176349 133.247 0.176834 135.98 2.9108C138.714 5.64477 138.713 10.0769 135.979 12.8103L102.122 46.66L112.72 46.66C116.586 46.66 119.72 49.794 119.72 53.66Z" />
<path fill-rule="evenodd" clip-rule="evenodd" d="M2.27028 136.61C-0.46339 133.876 -0.46339 129.444 2.27028 126.71L48.0803 80.9003C50.0823 78.8983 53.0931 78.2994 55.7088 79.3829C58.3245 80.4663 60.03 83.0188 60.03 85.85L60.03 113.36C60.03 117.226 56.896 120.36 53.03 120.36C49.164 120.36 46.03 117.226 46.03 113.36L46.03 102.75L12.1698 136.61C9.4361 139.343 5.00395 139.343 2.27028 136.61Z" />
<path fill-rule="evenodd" clip-rule="evenodd" d="M2.0709 136.41C-0.663066 133.677 -0.663551 129.245 2.06982 126.511L35.9232 92.65L25.3201 92.65C21.4541 92.65 18.3201 89.516 18.3201 85.65C18.3201 81.784 21.4541 78.65 25.3201 78.65L52.8201 78.65C55.6512 78.65 58.2036 80.3553 59.2871 82.9709C60.3707 85.5864 59.7721 88.5971 57.7704 90.5992L11.9704 136.409C9.23702 139.143 4.80487 139.144 2.0709 136.41Z" />
</svg>
