<svg xmlns="http://www.w3.org/2000/svg">
	<path id="Play" d="M119 63L10.9999 1.84C9.94801 1.24542 8.75893 0.936207 7.55063 0.943043C6.34233 0.949879 5.15682 1.27253 4.11171 1.87897C3.06661 2.48542 2.19823 3.35458 1.59273 4.40024C0.987229 5.44589 0.665654 6.6317 0.659912 7.84V130.13C0.665654 131.338 0.987229 132.524 1.59273 133.57C2.19823 134.615 3.06661 135.485 4.11171 136.091C5.15682 136.697 6.34233 137.02 7.55063 137.027C8.75893 137.034 9.94801 136.725 10.9999 136.13L119 75C120.053 74.3916 120.927 73.5168 121.535 72.4637C122.142 71.4105 122.462 70.2159 122.462 69C122.462 67.7841 122.142 66.5895 121.535 65.5363C120.927 64.4832 120.053 63.6084 119 63Z" />
</svg>
