<svg  xmlns="http://www.w3.org/2000/svg">
<g clip-path="url(#clip0)">
<path d="M20.0001 80.3948V119.845C20.0001 121.436 20.6323 122.962 21.7575 124.087C22.8827 125.213 24.4088 125.845 26.0001 125.845H51.8201C53.4109 125.846 54.936 126.479 56.0601 127.605L86.9401 158.485C87.7798 159.323 88.8494 159.894 90.0135 160.125C91.1776 160.356 92.384 160.236 93.4801 159.781C94.5762 159.326 95.5128 158.556 96.1714 157.569C96.83 156.582 97.1811 155.422 97.1801 154.235V45.9848C97.1771 44.7997 96.8232 43.6421 96.1631 42.6579C95.503 41.6737 94.5662 40.907 93.4709 40.4545C92.3756 40.0021 91.1708 39.8841 90.0086 40.1155C88.8463 40.3469 87.7786 40.9173 86.9401 41.7548L56.0601 72.6348C54.936 73.7603 53.4109 74.3934 51.8201 74.3948H26.0001C24.4088 74.3948 22.8827 75.0269 21.7575 76.1521C20.6323 77.2773 20.0001 78.8035 20.0001 80.3948V80.3948ZM135.77 100.115C135.795 89.9493 131.78 80.1904 124.61 72.9848C123.775 72.1347 122.706 71.5526 121.538 71.3126C120.371 71.0727 119.159 71.1857 118.056 71.6373C116.953 72.0889 116.01 72.8586 115.347 73.8484C114.683 74.8382 114.329 76.0031 114.33 77.1948V122.985C114.327 124.176 114.679 125.341 115.34 126.332C116.002 127.323 116.944 128.094 118.045 128.548C119.147 129.001 120.358 129.117 121.526 128.879C122.693 128.642 123.763 128.063 124.6 127.215C128.152 123.654 130.967 119.427 132.884 114.777C134.801 110.127 135.781 105.144 135.77 100.115Z" />
</g>
<defs>
<clipPath id="clip0">
<rect   />
</clipPath>
</defs>
</svg>
