<svg  xmlns="http://www.w3.org/2000/svg">
	<path fill-rule="evenodd" clip-rule="evenodd" d="M133.708 1.38269C136.324 2.46607 138.03 5.01862 138.03 7.85V35.36C138.03 39.226 134.896 42.36 131.03 42.36C127.164 42.36 124.03 39.226 124.03 35.36V24.7521L90.1803 58.6092C87.4469 61.3432 83.0147 61.3437 80.2808 58.6103C77.5468 55.8769 77.5463 51.4448 80.2797 48.7108L126.08 2.90079C128.082 0.898488 131.092 0.299317 133.708 1.38269Z"  />
	<path fill-rule="evenodd" clip-rule="evenodd" d="M96.33 7.64999C96.33 3.784 99.464 0.649994 103.33 0.649994H130.83C133.661 0.649994 136.214 2.35565 137.297 4.97156C138.381 7.58747 137.782 10.5984 135.779 12.6003L89.9692 58.4003C87.2353 61.1336 82.8031 61.1332 80.0697 58.3992C77.3364 55.6652 77.3368 51.2331 80.0708 48.4997L113.928 14.65H103.33C99.464 14.65 96.33 11.516 96.33 7.64999Z"  />
	<path fill-rule="evenodd" clip-rule="evenodd" d="M57.7798 80.7002C60.5134 83.4339 60.5134 87.8661 57.7798 90.5997L11.9698 136.41C9.96778 138.412 6.95696 139.011 4.34124 137.927C1.72551 136.844 0.0200195 134.291 0.0200195 131.46V103.95C0.0200195 100.084 3.15403 96.95 7.02002 96.95C10.886 96.95 14.02 100.084 14.02 103.95V114.561L47.8803 80.7002C50.6139 77.9666 55.0461 77.9666 57.7798 80.7002Z"  />
	<path fill-rule="evenodd" clip-rule="evenodd" d="M57.9791 80.8997C60.7131 83.6331 60.7136 88.0652 57.9802 90.7992L24.1268 124.66H34.7299C38.5959 124.66 41.7299 127.794 41.7299 131.66C41.7299 135.526 38.5959 138.66 34.7299 138.66H7.22994C4.39884 138.66 1.84649 136.955 0.76293 134.339C-0.320626 131.724 0.277984 128.713 2.27965 126.711L48.0797 80.9008C50.813 78.1668 55.2452 78.1663 57.9791 80.8997Z"  />
</svg>
