<svg  xmlns="http://www.w3.org/2000/svg">
<path d="M20.0001 80.3947V119.845C20.0001 121.436 20.6322 122.962 21.7575 124.087C22.8827 125.213 24.4088 125.845 26.0001 125.845H51.8201C53.4109 125.846 54.936 126.479 56.0601 127.605L86.9401 158.485C87.7798 159.323 88.8493 159.894 90.0135 160.125C91.1776 160.356 92.384 160.236 93.4801 159.781C94.5762 159.326 95.5128 158.556 96.1714 157.569C96.83 156.582 97.181 155.422 97.1801 154.235V45.9847C97.1771 44.7997 96.8232 43.642 96.1631 42.6578C95.503 41.6736 94.5662 40.907 93.4709 40.4545C92.3756 40.0021 91.1708 39.8841 90.0086 40.1155C88.8463 40.3469 87.7786 40.9173 86.9401 41.7547L56.0601 72.6347C54.936 73.7603 53.4109 74.3933 51.8201 74.3947H26.0001C24.4088 74.3947 22.8827 75.0269 21.7575 76.1521C20.6322 77.2773 20.0001 78.8034 20.0001 80.3947V80.3947ZM169.08 73.5647C167.721 72.206 165.877 71.4428 163.955 71.4428C162.033 71.4428 160.19 72.206 158.83 73.5647L141.62 90.7747L124.41 73.5647C123.04 72.2598 121.214 71.5422 119.322 71.5653C117.43 71.5884 115.622 72.3502 114.284 73.6882C112.946 75.0262 112.184 76.8343 112.161 78.7263C112.138 80.6184 112.855 82.4445 114.16 83.8147L131.37 100.985L114.16 118.235C112.855 119.605 112.138 121.431 112.161 123.323C112.184 125.215 112.946 127.023 114.284 128.361C115.622 129.699 117.43 130.461 119.322 130.484C121.214 130.507 123.04 129.79 124.41 128.485L141.62 111.275L158.83 128.485C160.2 129.79 162.026 130.507 163.918 130.484C165.811 130.461 167.619 129.699 168.957 128.361C170.295 127.023 171.056 125.215 171.08 123.323C171.103 121.431 170.385 119.605 169.08 118.235L151.87 100.985L169.08 83.7747C170.427 82.4169 171.182 80.582 171.182 78.6697C171.182 76.7574 170.427 74.9226 169.08 73.5647Z" />
</svg>
