<svg  xmlns="http://www.w3.org/2000/svg">
<path d="M19.3401 84.7113V124.151C19.3401 125.743 19.9722 127.269 21.0974 128.394C22.2227 129.519 23.7488 130.151 25.3401 130.151H51.1601C52.7494 130.15 54.2743 130.779 55.4001 131.901L86.2801 162.781C87.1192 163.619 88.1878 164.19 89.351 164.421C90.5142 164.652 91.7198 164.533 92.8155 164.08C93.9112 163.626 94.8479 162.858 95.5072 161.872C96.1666 160.886 96.519 159.727 96.5201 158.541V50.3213C96.521 49.1345 96.17 47.9741 95.5114 46.9869C94.8528 45.9996 93.9162 45.2298 92.8201 44.7749C91.724 44.32 90.5176 44.2003 89.3534 44.4311C88.1893 44.6618 87.1198 45.2326 86.2801 46.0713L55.4001 76.9513C54.276 78.0768 52.7509 78.7099 51.1601 78.7113H25.3401C23.7488 78.7113 22.2227 79.3434 21.0974 80.4687C19.9722 81.5939 19.3401 83.12 19.3401 84.7113V84.7113ZM135.11 104.441C135.129 94.28 131.115 84.5264 123.95 77.3213C123.114 76.4706 122.044 75.8883 120.876 75.6487C119.708 75.409 118.495 75.5228 117.392 75.9757C116.288 76.4286 115.345 77.1999 114.682 78.1912C114.02 79.1825 113.667 80.3488 113.67 81.5413V127.311C113.669 128.502 114.022 129.665 114.685 130.655C115.347 131.644 116.289 132.413 117.39 132.866C118.491 133.318 119.702 133.433 120.868 133.195C122.034 132.958 123.104 132.378 123.94 131.531C127.492 127.972 130.306 123.747 132.223 119.099C134.14 114.45 135.121 109.469 135.11 104.441ZM113.67 37.1513V42.5713C113.673 43.7788 114.04 44.9573 114.723 45.9529C115.407 46.9484 116.374 47.7146 117.5 48.1513C128.968 52.4309 138.854 60.1128 145.834 70.1679C152.814 80.223 156.554 92.171 156.554 104.411C156.554 116.652 152.814 128.6 145.834 138.655C138.854 148.71 128.968 156.392 117.5 160.671C116.368 161.101 115.394 161.867 114.71 162.867C114.025 163.866 113.662 165.05 113.67 166.261V171.681C113.67 172.633 113.896 173.572 114.33 174.419C114.764 175.266 115.394 175.998 116.166 176.554C116.939 177.11 117.833 177.474 118.775 177.616C119.716 177.758 120.678 177.674 121.58 177.371C136.79 172.159 149.991 162.325 159.337 149.242C168.683 136.16 173.707 120.484 173.707 104.406C173.707 88.3284 168.683 72.6525 159.337 59.5701C149.991 46.4878 136.79 36.6532 121.58 31.4413C120.676 31.1377 119.713 31.054 118.77 31.1971C117.827 31.3402 116.932 31.7061 116.158 32.2643C115.385 32.8225 114.756 33.557 114.323 34.4069C113.89 35.2568 113.667 36.1976 113.67 37.1513Z" />
</svg>
